<svg width="50" height="50" viewBox="0 0 181 179" xmlns="http://www.w3.org/2000/svg">
    <path fill="black" fill-rule="evenodd"
          d="M 148 99 L 146 101 L 144 101 L 143 102 L 141 102 L 140 103 L 139 103 L 138 104 L 137 104 L 136 105 L 134 105 L 133 106 L 131 106 L 130 107 L 130 109 L 129 110 L 129 112 L 128 113 L 128 115 L 127 116 L 127 118 L 126 119 L 126 120 L 124 122 L 124 123 L 112 135 L 111 135 L 109 137 L 108 137 L 107 138 L 106 138 L 105 139 L 103 139 L 102 140 L 101 140 L 100 141 L 97 141 L 96 142 L 79 142 L 78 141 L 75 141 L 74 140 L 71 140 L 69 138 L 68 138 L 67 137 L 66 137 L 65 136 L 64 136 L 61 133 L 60 133 L 52 125 L 52 124 L 50 122 L 50 121 L 49 120 L 36 120 L 35 119 L 29 119 L 29 121 L 30 122 L 30 123 L 31 124 L 31 126 L 32 127 L 32 128 L 33 129 L 33 130 L 35 132 L 35 133 L 36 134 L 36 135 L 41 140 L 41 141 L 42 141 L 51 150 L 52 150 L 53 151 L 54 151 L 56 153 L 57 153 L 58 154 L 59 154 L 60 155 L 62 155 L 63 156 L 64 156 L 65 157 L 67 157 L 68 158 L 70 158 L 71 159 L 74 159 L 75 160 L 79 160 L 80 161 L 94 161 L 95 160 L 100 160 L 101 159 L 104 159 L 105 158 L 107 158 L 108 157 L 110 157 L 111 156 L 112 156 L 113 155 L 114 155 L 115 154 L 116 154 L 117 153 L 118 153 L 119 152 L 120 152 L 121 151 L 122 151 L 124 149 L 125 149 L 138 136 L 138 135 L 140 133 L 140 132 L 141 131 L 141 129 L 143 127 L 143 126 L 144 125 L 144 124 L 145 123 L 145 121 L 146 120 L 146 119 L 147 118 L 147 115 L 148 114 L 148 112 L 149 111 L 149 105 L 150 104 L 150 100 L 149 99 Z M 153 54 L 152 55 L 152 56 L 153 57 L 155 57 L 156 58 L 157 58 L 158 59 L 159 59 L 164 64 L 164 67 L 163 68 L 163 69 L 156 76 L 155 76 L 153 78 L 152 78 L 151 79 L 150 79 L 149 80 L 148 80 L 147 81 L 146 81 L 145 82 L 143 82 L 142 83 L 141 83 L 139 85 L 137 85 L 136 86 L 135 86 L 134 87 L 132 87 L 131 88 L 129 88 L 128 89 L 127 89 L 126 90 L 124 90 L 123 91 L 121 91 L 117 87 L 116 87 L 113 84 L 112 84 L 111 83 L 109 83 L 108 82 L 98 82 L 97 83 L 95 83 L 93 85 L 92 85 L 90 87 L 90 88 L 89 89 L 88 89 L 88 90 L 86 92 L 86 93 L 85 94 L 85 96 L 84 97 L 84 99 L 83 100 L 79 100 L 78 101 L 71 101 L 70 102 L 65 102 L 64 103 L 49 103 L 48 104 L 47 104 L 46 103 L 28 103 L 27 102 L 24 102 L 23 101 L 20 101 L 19 100 L 18 100 L 17 99 L 15 99 L 13 97 L 13 96 L 11 94 L 11 92 L 13 90 L 13 89 L 20 82 L 21 82 L 21 81 L 22 80 L 22 78 L 21 79 L 20 79 L 19 80 L 18 80 L 17 81 L 16 81 L 14 83 L 13 83 L 11 85 L 10 85 L 4 91 L 4 92 L 3 93 L 3 94 L 2 95 L 2 101 L 3 102 L 3 103 L 7 107 L 8 107 L 9 108 L 11 108 L 12 109 L 14 109 L 15 110 L 17 110 L 18 111 L 21 111 L 22 112 L 27 112 L 28 113 L 65 113 L 66 112 L 73 112 L 74 111 L 81 111 L 82 110 L 86 110 L 87 111 L 87 112 L 93 118 L 94 118 L 95 119 L 96 119 L 97 120 L 100 120 L 101 121 L 107 121 L 108 120 L 110 120 L 111 119 L 112 119 L 113 118 L 114 118 L 115 117 L 116 117 L 118 115 L 118 114 L 121 111 L 121 110 L 122 109 L 122 106 L 123 105 L 123 103 L 125 101 L 127 101 L 128 100 L 130 100 L 131 99 L 132 99 L 133 98 L 136 98 L 137 97 L 138 97 L 139 96 L 140 96 L 141 95 L 143 95 L 144 94 L 145 94 L 146 93 L 148 93 L 149 92 L 150 92 L 151 91 L 153 91 L 154 90 L 155 90 L 156 89 L 157 89 L 159 87 L 161 87 L 163 85 L 164 85 L 167 82 L 168 82 L 175 75 L 175 74 L 177 72 L 177 69 L 178 68 L 178 67 L 177 66 L 177 65 L 176 64 L 176 63 L 174 61 L 173 61 L 171 59 L 170 59 L 169 58 L 168 58 L 167 57 L 165 57 L 164 56 L 162 56 L 161 55 L 157 55 L 156 54 Z M 115 53 L 114 54 L 106 54 L 105 55 L 98 55 L 97 56 L 93 56 L 92 57 L 87 57 L 86 58 L 84 58 L 83 59 L 79 59 L 78 60 L 74 60 L 73 61 L 70 61 L 69 62 L 66 62 L 65 63 L 61 63 L 60 64 L 57 64 L 56 65 L 53 65 L 52 66 L 50 66 L 49 67 L 47 67 L 46 68 L 47 69 L 48 69 L 49 68 L 50 68 L 51 67 L 53 67 L 54 66 L 56 66 L 57 65 L 59 65 L 60 64 L 63 64 L 64 63 L 67 63 L 68 62 L 70 62 L 71 61 L 76 61 L 77 60 L 80 60 L 81 59 L 85 59 L 86 58 L 92 58 L 93 57 L 98 57 L 99 56 L 107 56 L 108 55 L 120 55 L 121 54 L 128 54 L 129 53 Z M 131 26 L 131 79 L 132 80 L 133 79 L 135 79 L 136 78 L 138 78 L 139 77 L 140 77 L 141 76 L 142 76 L 143 75 L 144 75 L 145 74 L 146 74 L 148 72 L 149 72 L 150 71 L 150 27 L 149 26 Z M 25 26 L 25 96 L 26 97 L 34 97 L 35 98 L 43 98 L 44 97 L 44 26 Z "/>
</svg>